<?xml version="1.0" encoding="iso-8859-1"?>
<!-- Generator: Adobe Illustrator 19.0.0, SVG Export Plug-In . SVG Version: 6.00 Build 0)  -->
<svg version="1.1" id="Layer_1" xmlns="http://www.w3.org/2000/svg" xmlns:xlink="http://www.w3.org/1999/xlink" x="0px" y="0px"
	 viewBox="0 0 511.981 511.981" style="enable-background:new 0 0 511.981 511.981;" xml:space="preserve">
<g>
	<path style="fill:#434A54;" d="M453.323,95.996c-3.906,0-7.672-2.156-9.547-5.89l-18.389-36.78h-57.405
		c-5.891,0-10.671-4.766-10.671-10.656s4.78-10.671,10.671-10.671h63.997c4.047,0,7.734,2.281,9.547,5.89l21.328,42.67
		c2.641,5.266,0.5,11.672-4.766,14.312C456.557,95.636,454.932,95.996,453.323,95.996z"/>
	<path style="fill:#434A54;" d="M261.315,0h-85.324C170.1,0,165.32,4.78,165.32,10.671V42.67c0,5.891,4.781,10.656,10.671,10.656
		h85.325c5.906,0,10.672-4.766,10.672-10.656V10.671C271.987,4.78,267.221,0,261.315,0z"/>
</g>
<path style="fill:#37BC9B;" d="M378.654,74.668H58.667c-5.891,0-10.671,4.766-10.671,10.656v42.67c0,1.656,0.391,3.281,1.125,4.766
	l41.545,83.075v178.821c0,1.172,0.125,29.046,11.421,57.295c15.718,39.265,44.952,60.029,84.575,60.029h191.992
	c5.891,0,10.656-4.781,10.656-10.672V85.324C389.31,79.434,384.545,74.668,378.654,74.668z"/>
<path style="fill:#656D78;" d="M325.312,447.982c0-29.451,23.89-53.326,53.342-53.326c29.453,0,53.325,23.875,53.325,53.326
	c0,29.452-23.872,53.326-53.325,53.326C349.202,501.308,325.312,477.434,325.312,447.982z"/>
<path style="fill:#434A54;" d="M378.654,511.98c-35.295,0-63.998-28.702-63.998-63.998c0-35.295,28.703-63.997,63.998-63.997
	c35.28,0,63.997,28.702,63.997,63.997C442.651,483.278,413.934,511.98,378.654,511.98z M378.654,405.312
	c-23.53,0-42.67,19.14-42.67,42.67s19.14,42.671,42.67,42.671c23.531,0,42.655-19.141,42.655-42.671
	S402.185,405.312,378.654,405.312z"/>
<path style="fill:#48CFAD;" d="M378.654,31.998H58.667c-5.891,0-10.671,4.781-10.671,10.671v42.655
	c0,5.891,4.781,10.671,10.671,10.671h319.987c5.891,0,10.656-4.781,10.656-10.671V42.67
	C389.31,36.779,384.545,31.998,378.654,31.998z"/>
<path style="opacity:0.2;fill:#FFFFFF;enable-background:new    ;" d="M123.43,451.951c-11.312-28.249-11.437-56.123-11.437-57.295
	V215.835l-41.53-83.075c-0.75-1.484-1.141-3.109-1.141-4.766v-42.67V42.67c0-5.891,4.781-10.671,10.672-10.671H58.667
	c-5.891,0-10.671,4.781-10.671,10.671v42.655v42.67c0,1.656,0.391,3.281,1.125,4.766l41.545,83.075v178.821
	c0,1.172,0.125,29.046,11.421,57.295c15.718,39.265,44.952,60.029,84.575,60.029h21.328
	C168.382,511.98,139.133,491.216,123.43,451.951z"/>
<path style="fill:#AAB2BC;" d="M386.201,440.435c4.156,4.172,4.156,10.922,0,15.094c-4.172,4.155-10.922,4.155-15.094,0
	c-4.172-4.172-4.172-10.922,0-15.094C375.279,436.279,382.029,436.279,386.201,440.435z"/>
<g>
</g>
<g>
</g>
<g>
</g>
<g>
</g>
<g>
</g>
<g>
</g>
<g>
</g>
<g>
</g>
<g>
</g>
<g>
</g>
<g>
</g>
<g>
</g>
<g>
</g>
<g>
</g>
<g>
</g>
</svg>
