<?xml version="1.0" encoding="iso-8859-1"?>
<!-- Generator: Adobe Illustrator 19.0.0, SVG Export Plug-In . SVG Version: 6.00 Build 0)  -->
<svg version="1.1" id="Layer_1" xmlns="http://www.w3.org/2000/svg" xmlns:xlink="http://www.w3.org/1999/xlink" x="0px" y="0px"
	 viewBox="0 0 511.981 511.981" style="enable-background:new 0 0 511.981 511.981;" xml:space="preserve">
<circle style="fill:#656D78;" cx="85.32" cy="437.311" r="31.999"/>
<path style="fill:#434A54;" d="M85.324,479.982c-23.53,0-42.67-19.141-42.67-42.67c0-23.514,19.14-42.654,42.67-42.654
	c23.515,0,42.67,19.141,42.67,42.654C127.995,460.842,108.84,479.982,85.324,479.982z M85.324,415.986
	c-11.765,0-21.327,9.561-21.327,21.326s9.562,21.344,21.327,21.344c11.766,0,21.328-9.578,21.328-21.344
	S97.09,415.986,85.324,415.986z"/>
<circle style="fill:#656D78;" cx="426.64" cy="437.311" r="31.999"/>
<g>
	<path style="fill:#434A54;" d="M426.64,479.982c-23.53,0-42.655-19.141-42.655-42.67c0-23.514,19.125-42.654,42.655-42.654
		c23.529,0,42.67,19.141,42.67,42.654C469.31,460.842,450.17,479.982,426.64,479.982z M426.64,415.986
		c-11.766,0-21.327,9.561-21.327,21.326s9.562,21.344,21.327,21.344c11.764,0,21.342-9.578,21.342-21.344
		S438.404,415.986,426.64,415.986z"/>
	<path style="fill:#434A54;" d="M77.778,429.781c-4.156,4.156-4.156,10.906,0,15.078c4.172,4.172,10.921,4.172,15.093,0
		c4.156-4.172,4.156-10.922,0-15.078C88.699,425.609,81.95,425.609,77.778,429.781z"/>
	<path style="fill:#434A54;" d="M434.185,429.781c4.172,4.156,4.172,10.906,0,15.078s-10.92,4.172-15.092,0
		c-4.156-4.172-4.156-10.922,0-15.078C423.265,425.609,430.013,425.609,434.185,429.781z"/>
</g>
<g>
	<path style="fill:#AAB2BC;" d="M127.995,383.986H74.653c-5.891,0-10.656,4.781-10.656,10.672v31.998
		c0,5.891,4.765,10.656,10.656,10.656h21.343c2.828,0,5.531-1.125,7.531-3.125l31.999-31.998c3.047-3.047,3.969-7.641,2.312-11.625
		S132.307,383.986,127.995,383.986z"/>
	<path style="fill:#AAB2BC;" d="M437.31,383.986h-53.325c-4.328,0-8.219,2.594-9.859,6.578c-1.656,3.984-0.734,8.578,2.312,11.625
		l32,31.998c2,2,4.702,3.125,7.546,3.125h21.326c5.891,0,10.672-4.766,10.672-10.656v-31.998
		C447.982,388.767,443.201,383.986,437.31,383.986z"/>
</g>
<path style="fill:#967ADC;" d="M479.981,106.669H31.999c-5.906,0-10.672,4.766-10.672,10.656v277.333
	c0,5.891,4.766,10.656,10.672,10.656h447.982c5.875,0,10.656-4.766,10.656-10.656V117.324
	C490.637,111.434,485.856,106.669,479.981,106.669z"/>
<g style="opacity:0.1;">
	<path style="fill:#080808;" d="M405.313,138.667c-5.891,0-10.672-4.781-10.672-10.671v-10.671c0-5.89,4.781-10.656,10.672-10.656
		s10.655,4.766,10.655,10.656v10.671C415.969,133.887,411.204,138.667,405.313,138.667z"/>
	<path style="fill:#080808;" d="M447.982,138.667c-5.906,0-10.672-4.781-10.672-10.671v-10.671c0-5.89,4.766-10.656,10.672-10.656
		c5.875,0,10.656,4.766,10.656,10.656v10.671C458.638,133.887,453.857,138.667,447.982,138.667z"/>
	<path style="fill:#080808;" d="M362.641,138.667c-5.89,0-10.671-4.781-10.671-10.671v-10.671c0-5.89,4.781-10.656,10.671-10.656
		c5.891,0,10.672,4.766,10.672,10.656v10.671C373.313,133.887,368.532,138.667,362.641,138.667z"/>
	<path style="fill:#080808;" d="M319.987,138.667c-5.906,0-10.671-4.781-10.671-10.671v-10.671c0-5.89,4.765-10.656,10.671-10.656
		c5.875,0,10.656,4.766,10.656,10.656v10.671C330.643,133.887,325.862,138.667,319.987,138.667z"/>
	<path style="fill:#080808;" d="M277.318,138.667c-5.891,0-10.672-4.781-10.672-10.671v-10.671c0-5.89,4.781-10.656,10.672-10.656
		c5.89,0,10.671,4.766,10.671,10.656v10.671C287.989,133.887,283.208,138.667,277.318,138.667z"/>
	<path style="fill:#080808;" d="M234.647,138.667c-5.89,0-10.671-4.781-10.671-10.671v-10.671c0-5.89,4.781-10.656,10.671-10.656
		c5.891,0,10.672,4.766,10.672,10.656v10.671C245.319,133.887,240.537,138.667,234.647,138.667z"/>
	<path style="fill:#080808;" d="M191.992,138.667c-5.906,0-10.672-4.781-10.672-10.671v-10.671c0-5.89,4.766-10.656,10.672-10.656
		c5.89,0,10.656,4.766,10.656,10.656v10.671C202.648,133.887,197.883,138.667,191.992,138.667z"/>
	<path style="fill:#080808;" d="M149.322,138.667c-5.89,0-10.671-4.781-10.671-10.671v-10.671c0-5.89,4.781-10.656,10.671-10.656
		c5.891,0,10.672,4.766,10.672,10.656v10.671C159.994,133.887,155.213,138.667,149.322,138.667z"/>
	<path style="fill:#080808;" d="M106.652,138.667c-5.891,0-10.656-4.781-10.656-10.671v-10.671c0-5.89,4.765-10.656,10.656-10.656
		s10.671,4.766,10.671,10.656v10.671C117.323,133.887,112.543,138.667,106.652,138.667z"/>
	<path style="fill:#080808;" d="M63.997,138.667c-5.906,0-10.671-4.781-10.671-10.671v-10.671c0-5.89,4.766-10.656,10.671-10.656
		c5.89,0,10.656,4.766,10.656,10.656v10.671C74.653,133.887,69.887,138.667,63.997,138.667z"/>
</g>
<path style="fill:#656D78;" d="M458.638,32H53.326c-5.89,0-10.671,4.781-10.671,10.671V74.67c0,5.891,4.781,10.656,10.671,10.656
	h405.312c5.891,0,10.672-4.766,10.672-10.656V42.671C469.31,36.781,464.529,32,458.638,32z"/>
<path style="fill:#434A54;" d="M319.987,74.67H191.992c-5.906,0-10.672-4.781-10.672-10.671s4.766-10.671,10.672-10.671h127.995
	c5.875,0,10.656,4.781,10.656,10.671C330.643,69.888,325.862,74.67,319.987,74.67z"/>
<g>
	<path style="opacity:0.1;fill:#080808;enable-background:new    ;" d="M95.996,319.988c-5.906,0-10.672,4.781-10.672,10.672v74.654
		h21.328V330.66C106.652,324.769,101.871,319.988,95.996,319.988z"/>
	<path style="opacity:0.1;fill:#080808;enable-background:new    ;" d="M415.984,319.988c-5.905,0-10.671,4.781-10.671,10.672
		v74.654h21.327V330.66C426.64,324.769,421.859,319.988,415.984,319.988z"/>
</g>
<path style="fill:#AC92EB;" d="M501.308,63.998H10.656C4.765,63.998,0,68.779,0,74.669v42.655c0,5.891,4.765,10.671,10.656,10.671
	h490.653c5.891,0,10.672-4.781,10.672-10.671V74.67C511.98,68.779,507.199,63.998,501.308,63.998z"/>
<g>
</g>
<g>
</g>
<g>
</g>
<g>
</g>
<g>
</g>
<g>
</g>
<g>
</g>
<g>
</g>
<g>
</g>
<g>
</g>
<g>
</g>
<g>
</g>
<g>
</g>
<g>
</g>
<g>
</g>
</svg>
