<?xml version="1.0" standalone="no"?>
<!DOCTYPE svg PUBLIC "-//W3C//DTD SVG 20010904//EN"
 "http://www.w3.org/TR/2001/REC-SVG-20010904/DTD/svg10.dtd">
<svg version="1.0" xmlns="http://www.w3.org/2000/svg"
 width="225.000000pt" height="225.000000pt" viewBox="0 0 225.000000 225.000000"
 preserveAspectRatio="xMidYMid meet">

<g transform="translate(0.000000,225.000000) scale(0.100000,-0.100000)"
fill="#000000" stroke="none">
<path d="M748 2239 c-14 -8 -18 -23 -18 -69 l0 -60 230 0 230 0 0 60 c0 48 -4
61 -19 70 -26 13 -400 13 -423 -1z"/>
<path d="M1694 2094 c9 -8 16 -29 16 -45 l0 -29 80 0 80 0 45 -89 c24 -49 49
-92 55 -96 18 -11 58 4 65 24 7 24 -96 236 -120 245 -9 3 -66 6 -127 6 -99 0
-108 -1 -94 -16z"/>
<path d="M1554 542 c-131 -62 -199 -202 -160 -335 21 -74 68 -133 136 -171 49
-27 64 -31 130 -30 87 1 132 18 192 72 143 129 108 364 -67 455 -58 30 -176
34 -231 9z m137 -222 c23 -13 25 -53 3 -74 -29 -30 -74 -10 -74 32 0 46 30 64
71 42z"/>
</g>
</svg>
